<?xml version="1.0" encoding="UTF-8"?> <svg xmlns="http://www.w3.org/2000/svg" width="698.078" height="329.853" viewBox="0 0 698.078 329.853"><g id="Groupe_4481" data-name="Groupe 4481" transform="translate(0 -2.751)"><g id="Groupe_4385" data-name="Groupe 4385" transform="translate(0 5.087)"><g id="Groupe_4384" data-name="Groupe 4384" transform="translate(0 0)"><path id="Tracé_3658" data-name="Tracé 3658" d="M0,26.222l475.911.191s11.923-2.947,15.5-3.055c9.2-.276,14.018,1.618,18.866,5.3,5.175,3.926,13.023,8.07,22.474,7.262,17.651-1.509,22.371-28.5,40.818-30.737s26.963,20.875,54.447,21.386c20.191.376,69.224-.535,69.224-.535V230.459S626.662,326.378,486.915,332.2c-80.5,3.354-106.775-50.312-192.307-77.146-30.253-9.491-118.376-27.3-155.969-53.666C95.594,171.2,70.327,113.2,55.344,85.11c-13.417-25.156-37.4-35.224-46.4-45.281C4.987,35.4,0,26.222,0,26.222Z" transform="translate(0 -5.027)" fill="#7db3ec"></path></g></g><g id="Groupe_4388" data-name="Groupe 4388" transform="translate(130.251 26.282)"><g id="Groupe_4387" data-name="Groupe 4387"><g id="Groupe_4386" data-name="Groupe 4386"><path id="Tracé_3659" data-name="Tracé 3659" d="M384.385,226.711c-.672-.163-68.106-16.822-145.168-66.019-27.324-17.443-44.121-45.927-60.365-73.473-14.815-25.122-31.71-50.263-51.979-61.2l6.318-.344c21.055,11.366,33.375,34.4,48.423,59.918,16.052,27.221,32.652,55.367,59.328,72.4,76.585,48.892,150.461,66.3,147.329,65.951Z" transform="translate(-126.874 -25.672)" fill="#246fc7"></path></g></g></g><g id="Groupe_4391" data-name="Groupe 4391" transform="translate(111.449 35.722)"><g id="Groupe_4390" data-name="Groupe 4390"><g id="Groupe_4389" data-name="Groupe 4389"><path id="Tracé_3660" data-name="Tracé 3660" d="M110.385,85.09l-1.825-2.85c5.3-10.057,28.488-41.049,35.446-47.373l2.157,2.375C139.534,43.266,115.453,75.472,110.385,85.09Z" transform="translate(-108.56 -34.867)" fill="#246fc7"></path></g></g></g><g id="Groupe_4394" data-name="Groupe 4394" transform="translate(0 26.282)"><g id="Groupe_4393" data-name="Groupe 4393"><g id="Groupe_4392" data-name="Groupe 4392"><path id="Tracé_3661" data-name="Tracé 3661" d="M371.385,272.492c-72-79.13-144.558-53.383-215.555-128.852-27.758-29.507-37.783-68.08-96.238-117.778L0,25.672S4.987,34.855,8.944,39.28c9,10.057,32.984,20.125,46.4,45.281,14.983,28.094,40.251,86.091,83.3,116.279,37.593,26.363,125.715,44.175,155.97,53.666,85.53,26.834,111.806,80.5,192.306,77.146C426.188,322.75,395.63,299.138,371.385,272.492Z" transform="translate(0 -25.672)" fill="#246fc6"></path></g></g></g><g id="Groupe_4396" data-name="Groupe 4396" transform="translate(206.443 108.276)"><g id="Groupe_4395" data-name="Groupe 4395"><path id="Tracé_3662" data-name="Tracé 3662" d="M206.081,166.014c11.406-38.757,11.305-54.784,23.347-58.6,15.326-4.856,76.6-.642,103.545,16.992,13.277,8.688,2.247,117.927,2.247,117.927l-134.13-38.085Z" transform="translate(-201.091 -105.54)" fill="#21232b"></path></g></g><g id="Groupe_4398" data-name="Groupe 4398" transform="translate(280.583 220.527)"><g id="Groupe_4397" data-name="Groupe 4397"><path id="Tracé_3663" data-name="Tracé 3663" d="M361.575,284.733l52.882-55.594a120.458,120.458,0,0,0-45.176,2.624c-24.5,6.188-82.428-11.178-95.973-16.882l2.786,31.346c4.291,1.171,8.085,2.253,11.24,3.243C317.934,259.07,340.948,272.1,361.575,284.733Z" transform="translate(-273.308 -214.881)" fill="#246fc6"></path></g></g><g id="Groupe_4400" data-name="Groupe 4400" transform="translate(330.376 5.087)"><g id="Groupe_4399" data-name="Groupe 4399" transform="translate(0 0)"><path id="Tracé_3664" data-name="Tracé 3664" d="M688.679,230.459V26.031s-49.032.911-69.224.535c-27.484-.511-36-23.622-54.447-21.386S541.84,34.407,524.19,35.916c-9.451.808-17.3-3.337-22.474-7.262-4.848-3.678-9.663-5.572-18.866-5.3-3.582.108-15.5,3.055-15.5,3.055H380.2c35.108,28.668,46.643,87.91,33.682,137.025-13.544,51.327-52.753,85.545-92.068,105.647,59.158,28.008,88.457,65.954,156.538,63.117C618.1,326.378,688.679,230.459,688.679,230.459Z" transform="translate(-321.811 -5.027)" fill="#246fc6"></path></g></g><g id="Groupe_4402" data-name="Groupe 4402" transform="translate(330.376 65.121)"><g id="Groupe_4401" data-name="Groupe 4401"><path id="Tracé_3665" data-name="Tracé 3665" d="M688.679,228.9V63.5c-23.154,100.515-147.908,181.783-292.4,138.708-18.659,29.612-46.53,51.031-74.467,65.315,59.158,28.008,88.457,65.954,156.538,63.117C618.1,324.822,688.679,228.9,688.679,228.9Z" transform="translate(-321.811 -63.504)" fill="#132d7f"></path></g></g><g id="Groupe_4404" data-name="Groupe 4404" transform="translate(222.498 116.716)"><g id="Groupe_4403" data-name="Groupe 4403"><path id="Tracé_3666" data-name="Tracé 3666" d="M315.091,150.385c-6.95-23.525-12.163-18.045-18.044-24.46a32.132,32.132,0,0,1-4.01-6.55c-7.307,3.378-20.171,3.84-24.622-2.351,0,.011-2.509-3.274-2.512-3.263-3.037,9.8-20.852,9.357-31.23,13.927-6.549,2.885-17.944,45.225-17.944,73.747l107.879,30.293S322.042,173.909,315.091,150.385Z" transform="translate(-216.729 -113.761)" fill="#d9d5c8"></path></g></g><g id="Groupe_4406" data-name="Groupe 4406" transform="translate(274.184 93.296)"><g id="Groupe_4405" data-name="Groupe 4405"><path id="Tracé_3667" data-name="Tracé 3667" d="M287.631,121.619c-3.39-9.368-2.751-27.3-2.751-27.3l-14.791-3.37s-.627,18.934-3.013,26.683C271.526,123.821,280.324,125,287.631,121.619Z" transform="translate(-267.075 -90.948)" fill="#de6b37"></path></g></g><g id="Groupe_4408" data-name="Groupe 4408" transform="translate(268.194 64.901)"><g id="Groupe_4407" data-name="Groupe 4407"><path id="Tracé_3668" data-name="Tracé 3668" d="M261.462,86.234c4.89,12.955,15.48,21.785,21.441,20.26,6.482-1.659,9.865-14.327,9.654-23.637s-8.281-23.8-17.224-18.393S259.946,82.218,261.462,86.234Z" transform="translate(-261.24 -63.29)" fill="#f0793b"></path></g></g><g id="Groupe_4410" data-name="Groupe 4410" transform="translate(257.939 56.556)"><g id="Groupe_4409" data-name="Groupe 4409"><path id="Tracé_3669" data-name="Tracé 3669" d="M270.232,100.223c-7.338,3.383-16.011-.057-18.347-5.754-3.37-8.22,7.835-14.55,7.218-20.852s7.465-18.371,15.882-18.455,9.518,4.645,11.491,4.972,6.979,1.417,8.1,3.466.4,4.32,2.371,7.148,3.55,10.81,1.6,14.954-7.08,7.869-7.08,7.869,2.519-17.917-1.813-19.2-13.8-7.351-15.749-4.817S272.454,79.993,271.3,83.3s-6.473,1.771-6.673,5.414C264.464,91.642,270.232,100.223,270.232,100.223Z" transform="translate(-251.252 -55.161)" fill="#21232b"></path></g></g><g id="Groupe_4412" data-name="Groupe 4412" transform="translate(320.058 190.663)"><g id="Groupe_4411" data-name="Groupe 4411"><path id="Tracé_3670" data-name="Tracé 3670" d="M311.891,195.891c8.555-9.09,23.652-12.683,29.81-8.127,11.316,8.377-5.128,44.568-5.128,44.568l-6.107-.953s12.821-33.571,7.225-38.18c-6.06-4.99-25.931,9-25.931,9Z" transform="translate(-311.76 -185.791)" fill="#0b354c"></path></g></g><g id="Groupe_4414" data-name="Groupe 4414" transform="translate(332.31 85.606)"><g id="Groupe_4413" data-name="Groupe 4413"><path id="Tracé_3671" data-name="Tracé 3671" d="M335.542,107.155a11.849,11.849,0,1,1,11.847-11.848A11.862,11.862,0,0,1,335.542,107.155Zm0-21.644a9.8,9.8,0,1,0,9.794,9.8A9.807,9.807,0,0,0,335.542,85.511Z" transform="translate(-323.694 -83.458)" fill="#246fc7"></path></g></g><g id="Groupe_4417" data-name="Groupe 4417" transform="translate(20.291 26.282)"><g id="Groupe_4416" data-name="Groupe 4416"><g id="Groupe_4415" data-name="Groupe 4415"><path id="Tracé_3672" data-name="Tracé 3672" d="M134.107,165.246c-21.926-15.282-37.612-42.4-51.316-67.31-16.551-30.084-35.025-60.63-63.026-72.2l7.791-.065c29.39,12.143,42.8,40.794,58.983,70.2,13.467,24.48,27.394,49.794,48.5,64.5Z" transform="translate(-19.765 -25.672)" fill="#7db3ec"></path></g></g></g><g id="Groupe_4419" data-name="Groupe 4419" transform="translate(74.77 47.059)"><g id="Groupe_4418" data-name="Groupe 4418"><path id="Tracé_3673" data-name="Tracé 3673" d="M76.937,81.57H72.831c0-.988.106-24.307,9.243-35.66l3.2,2.574C77.033,58.722,76.937,81.342,76.937,81.57Z" transform="translate(-72.831 -45.91)" fill="#7db3ec"></path></g></g><g id="Groupe_4422" data-name="Groupe 4422" transform="translate(100.768 132.221)"><g id="Groupe_4421" data-name="Groupe 4421"><g id="Groupe_4420" data-name="Groupe 4420"><path id="Tracé_3674" data-name="Tracé 3674" d="M99.413,161.8c-1.465-8.406-2.864-16.311,3.3-32.935l4.01,1.488a69.206,69.206,0,0,0-3.232,36.625Z" transform="translate(-98.155 -128.864)" fill="#7db3ec"></path></g></g></g><g id="Groupe_4424" data-name="Groupe 4424" transform="translate(181.463 2.751)"><g id="Groupe_4423" data-name="Groupe 4423"><circle id="Ellipse_244" data-name="Ellipse 244" cx="23.875" cy="23.875" r="23.875" fill="#da6052"></circle></g></g><g id="Groupe_4426" data-name="Groupe 4426" transform="translate(203.731 10.971)"><g id="Groupe_4425" data-name="Groupe 4425"><path id="Tracé_3675" data-name="Tracé 3675" d="M211.648,31.4l-13.2-4.44,10.962-16.2,1.7,1.151-9.448,13.962L212.3,29.449Z" transform="translate(-198.449 -10.758)" fill="#f7f2ec"></path></g></g><g id="Groupe_4428" data-name="Groupe 4428" transform="translate(406.753 67.691)"><g id="Groupe_4427" data-name="Groupe 4427"><path id="Tracé_3676" data-name="Tracé 3676" d="M420.246,66.008,396.208,76.259l20.9,15.693Z" transform="translate(-396.208 -66.008)" fill="#21232b"></path></g></g><g id="Groupe_4430" data-name="Groupe 4430" transform="translate(418.802 26.007)"><g id="Groupe_4429" data-name="Groupe 4429"><path id="Tracé_3677" data-name="Tracé 3677" d="M441.343,107.674H439.29c0-19.7-9.693-52.4-31.346-81.031l1.637-1.239C431.521,54.416,441.343,87.628,441.343,107.674Z" transform="translate(-407.944 -25.404)" fill="#d9d5c8"></path></g></g><g id="Groupe_4432" data-name="Groupe 4432" transform="translate(133.915 108.276)"><g id="Groupe_4431" data-name="Groupe 4431"><path id="Tracé_3678" data-name="Tracé 3678" d="M291.137,252.38a275.747,275.747,0,0,1,33.81,13.112l0-.005c-9.286-20.652-8.358-80.3-8.358-87.616s-30.2-4.946-54.8-9.625c-27.445-5.218-75.386-9.89-119.037-62.707-10.338,15.352-13.879,56.917-11.68,90.172q2.023,1.54,4.1,3C172.76,225.077,260.883,242.889,291.137,252.38Z" transform="translate(-130.443 -105.54)" fill="#0b354c"></path></g></g><g id="Groupe_4434" data-name="Groupe 4434" transform="translate(404.904 285.961)"><g id="Groupe_4433" data-name="Groupe 4433"><path id="Tracé_3679" data-name="Tracé 3679" d="M436.052,304.108,396.91,278.618l-2.5,46.642Z" transform="translate(-394.407 -278.618)" fill="#da6052"></path></g></g><g id="Groupe_4436" data-name="Groupe 4436" transform="translate(493.894 132.214)"><g id="Groupe_4435" data-name="Groupe 4435"><path id="Tracé_3680" data-name="Tracé 3680" d="M564.679,129.39,495.123,152a20.3,20.3,0,0,0-13.5,23.907c8.3,35.7,26.563,114.537,33.926,148.44a290.909,290.909,0,0,0,116.613-48.838L578.12,135.779A10.823,10.823,0,0,0,564.679,129.39Z" transform="translate(-481.089 -128.857)" fill="#21232b"></path></g></g><g id="Groupe_4438" data-name="Groupe 4438" transform="translate(506.665 144.425)"><g id="Groupe_4437" data-name="Groupe 4437"><path id="Tracé_3681" data-name="Tracé 3681" d="M572.361,145.7a7.737,7.737,0,0,0-9.621-4.562l-58.956,19.29a14.872,14.872,0,0,0-9.841,17.605C501.156,208.09,518.9,281.55,529.5,321.1a290.693,290.693,0,0,0,94.9-40.825Z" transform="translate(-493.529 -140.752)" fill="#f7f2ec"></path></g></g><g id="Groupe_4440" data-name="Groupe 4440" transform="translate(616.703 39.814)"><g id="Groupe_4439" data-name="Groupe 4439"><path id="Tracé_3682" data-name="Tracé 3682" d="M600.714,87.329c26.377-16.04,47.762-44.911,49.544-48.476,15.327,17.466,16.4,23.295,18.892,23.41-20.318,28.274-41.347,45.079-43.842,45.052,1.782,15.3,4.277,19.935,1.782,19.579C622.457,124.042,600.714,87.329,600.714,87.329Z" transform="translate(-600.714 -38.853)" fill="#d9d5c8"></path></g></g><g id="Groupe_4442" data-name="Groupe 4442" transform="translate(636.842 139.706)"><g id="Groupe_4441" data-name="Groupe 4441"><path id="Tracé_3683" data-name="Tracé 3683" d="M620.331,165.2c10.336-5.7,30.7-27.975,31.41-29.044,9.49,22.322,11.9,27.535,14.274,33.981-6.414-4.4-10.8-7.862-10.8-7.862s-15.638,13.618-23.2,15.816C624.883,170.605,620.331,165.2,620.331,165.2Z" transform="translate(-620.331 -136.155)" fill="#da6052"></path></g></g><g id="Groupe_4444" data-name="Groupe 4444" transform="translate(524.14 170.626)"><g id="Groupe_4443" data-name="Groupe 4443"><path id="Tracé_3684" data-name="Tracé 3684" d="M510.551,184.791c10.336-2.3,56.919-18.517,56.919-18.517s10.693,35.288,12.119,37.783C559.873,214.75,522.2,223.3,522.2,223.3Z" transform="translate(-510.551 -166.274)" fill="#7db3ec"></path></g></g><g id="Groupe_4446" data-name="Groupe 4446" transform="translate(540.069 227.633)"><g id="Groupe_4445" data-name="Groupe 4445"><path id="Tracé_3685" data-name="Tracé 3685" d="M584.523,221.814c-1.782,1.07-52.753,17.833-58.456,17.424l20.011,75.082A290.362,290.362,0,0,0,609.8,286.661C603.576,269.365,585.987,220.936,584.523,221.814Z" transform="translate(-526.067 -221.802)" fill="#7db3ec"></path></g></g><g id="Groupe_4448" data-name="Groupe 4448" transform="translate(473.437 176.666)"><g id="Groupe_4447" data-name="Groupe 4447"><path id="Tracé_3686" data-name="Tracé 3686" d="M497.375,240.559c-19.482-14.917-31.6-36.3-34.452-49.135s-1.782-18.918,0-19.261S484.8,186.154,484.8,186.154Z" transform="translate(-461.163 -172.157)" fill="#f0793b"></path></g></g><g id="Groupe_4450" data-name="Groupe 4450" transform="translate(596.153 165.825)"><g id="Groupe_4449" data-name="Groupe 4449"><path id="Tracé_3687" data-name="Tracé 3687" d="M625.841,228.225c-4.337-8.471-3.327-21.852-8.791-28.51-11.407-13.9-15.8-32.961-16.16-35.193s-8.33-3.806-12.832-2.38-7.4,16.732-7.362,30.5c.02,8.632,5.222,20.1,9.856,31.5,4.119,10.14-12.832,42.416,6.925,70.168a292.546,292.546,0,0,0,46.16-30.316C640.586,255.088,632.3,240.84,625.841,228.225Z" transform="translate(-580.697 -161.597)" fill="#f0793b"></path></g></g><g id="Groupe_4452" data-name="Groupe 4452" transform="translate(519.345 293.949)"><g id="Groupe_4451" data-name="Groupe 4451"><path id="Tracé_3688" data-name="Tracé 3688" d="M553.6,301.107c-2.406-1.337-21.386-9.891-28.07-12.03s-14.7-6.248-19.247,3.742c-1.307,2.872.344,11.821,7.646,27.5A292.092,292.092,0,0,0,560,308.267C557.523,305.074,554.787,301.764,553.6,301.107Z" transform="translate(-505.88 -286.399)" fill="#de6b37"></path></g></g><g id="Groupe_4454" data-name="Groupe 4454" transform="translate(505.512 260.631)"><g id="Groupe_4453" data-name="Groupe 4453"><path id="Tracé_3689" data-name="Tracé 3689" d="M507.615,291.852c-6.911-1.376-16.195-21.879-15.125-26.095s3.623-10.988,7.633-11.79,42.61,19.758,46.89,23.975c4.783,4.712,11.44,14.108,8.278,19.415s-11.753,4.881-17.9,4.079S510.031,292.332,507.615,291.852Z" transform="translate(-492.405 -253.945)" fill="#f0793b"></path></g></g><g id="Groupe_4456" data-name="Groupe 4456" transform="translate(527.237 88.29)"><g id="Groupe_4455" data-name="Groupe 4455"><ellipse id="Ellipse_245" data-name="Ellipse 245" cx="40.634" cy="37.604" rx="40.634" ry="37.604" fill="#132d7f"></ellipse></g></g><g id="Groupe_4458" data-name="Groupe 4458" transform="translate(550.245 105.265)"><g id="Groupe_4457" data-name="Groupe 4457"><path id="Tracé_3690" data-name="Tracé 3690" d="M545.058,103.8a3.846,3.846,0,0,0-6.323,1.136c-4.281,10.233-5.7,28.984,11.939,36.652,17.083,7.424,24.287-5.271,26.39-10.3a2.946,2.946,0,0,0-.673-3.263c-2.027-1.952-5.769-5.4-7.538-6.037-1.807-.648-4.437,3.052-5.75,5.142a3.8,3.8,0,0,0-.539,2.656c.373,2.217.678,6.552-2.489,7.08a12.976,12.976,0,0,1-11.548-3.164c-3.174-2.765-3.377-8.314-3.02-11.272s5.881-4.678,6.282-8.955C552.046,110.736,548.53,107.419,545.058,103.8Z" transform="translate(-535.979 -102.607)" fill="#f7f2ec"></path></g></g><g id="Groupe_4460" data-name="Groupe 4460" transform="translate(526.715 182.495)"><g id="Groupe_4459" data-name="Groupe 4459"><path id="Tracé_3691" data-name="Tracé 3691" d="M545.614,210.093c-3.752-2.824-6.683-6.388-9.788-10.16-5.165-6.278-11.019-13.393-22.767-20.329l1.044-1.769c12.06,7.121,18.037,14.385,23.308,20.793,3.157,3.835,5.881,7.147,9.438,9.826Z" transform="translate(-513.059 -177.835)" fill="#21232b"></path></g></g><g id="Groupe_4462" data-name="Groupe 4462" transform="translate(375.669 96.807)"><g id="Groupe_4461" data-name="Groupe 4461"><path id="Tracé_3692" data-name="Tracé 3692" d="M477.1,158.451c-8.266-2.9-18.839-5.2-28.169-7.232-5.694-1.24-11.073-2.412-15.316-3.583-22.627-6.243-43.5-22.27-67.685-51.971l1.592-1.3c23.9,29.35,44.449,45.168,66.638,51.29,4.191,1.156,9.542,2.32,15.208,3.555,9.387,2.043,20.026,4.359,28.412,7.3Z" transform="translate(-365.929 -94.368)" fill="#21232b"></path></g></g><g id="Groupe_4464" data-name="Groupe 4464" transform="translate(513.42 183.934)"><g id="Groupe_4463" data-name="Groupe 4463"><path id="Tracé_3693" data-name="Tracé 3693" d="M557.649,225.124c-12.593-3.185-27.668-17.562-39.781-29.115-7.483-7.136-13.946-13.3-17.758-14.874l.781-1.9c4.171,1.721,10.763,8.007,18.395,15.285,11.938,11.387,26.8,25.558,38.868,28.611Z" transform="translate(-500.109 -179.237)" fill="#21232b"></path></g></g><g id="Groupe_4466" data-name="Groupe 4466" transform="translate(379.906 117.344)"><g id="Groupe_4465" data-name="Groupe 4465"><path id="Tracé_3694" data-name="Tracé 3694" d="M438.583,161.523c-15.933-3.946-53.616-22.066-68.527-46.068l1.744-1.082c14.6,23.506,51.616,41.279,67.275,45.158Z" transform="translate(-370.056 -114.373)" fill="#21232b"></path></g></g><g id="Groupe_4468" data-name="Groupe 4468" transform="translate(666.662 187.653)"><g id="Groupe_4467" data-name="Groupe 4467"><path id="Tracé_3695" data-name="Tracé 3695" d="M650.687,216.525l-1.309-1.582c16.278-13.476,29.616-31.9,29.749-32.084l1.666,1.2C680.659,184.244,667.172,202.875,650.687,216.525Z" transform="translate(-649.378 -182.859)" fill="#246fc7"></path></g></g><g id="Groupe_4470" data-name="Groupe 4470" transform="translate(516.871 25.821)"><g id="Groupe_4469" data-name="Groupe 4469"><path id="Tracé_3696" data-name="Tracé 3696" d="M503.887,87.041l-.417-2.011c32.646-6.77,81.489-30.031,107.7-59.807l1.542,1.357C586.205,56.69,536.858,80.2,503.887,87.041Z" transform="translate(-503.47 -25.223)" fill="#da6052"></path></g></g><g id="Groupe_4472" data-name="Groupe 4472" transform="translate(414.968 267.347)"><g id="Groupe_4471" data-name="Groupe 4471"><path id="Tracé_3697" data-name="Tracé 3697" d="M474.652,277.27c-21.547,0-51-3.4-70.443-15.02l1.053-1.763c27.678,16.542,76.075,16.118,91.593,13.154l.385,2.017A131.783,131.783,0,0,1,474.652,277.27Z" transform="translate(-404.209 -260.487)" fill="#246fc7"></path></g></g><g id="Groupe_4474" data-name="Groupe 4474" transform="translate(539.046 33.401)"><g id="Groupe_4473" data-name="Groupe 4473"><path id="Tracé_3698" data-name="Tracé 3698" d="M525.987,58.829l-.917-1.837c13.914-6.943,26.612-19.366,31.426-24.386l1.481,1.422C553.089,39.124,540.188,51.743,525.987,58.829Z" transform="translate(-525.07 -32.606)" fill="#da6052"></path></g></g><g id="Groupe_4476" data-name="Groupe 4476" transform="translate(608.504 171.975)"><g id="Groupe_4475" data-name="Groupe 4475"><path id="Tracé_3699" data-name="Tracé 3699" d="M612.191,193.234l0-.013a95.142,95.142,0,0,1-10.874-25.6c-3.939-.143-8.646.072-8.586,1.923.544,16.4.327,24.851,5.44,24.723S612.191,193.234,612.191,193.234Z" transform="translate(-592.727 -167.588)" fill="#d9d5c8"></path></g></g><g id="Groupe_4478" data-name="Groupe 4478" transform="translate(534.348 284.613)"><g id="Groupe_4477" data-name="Groupe 4477"><path id="Tracé_3700" data-name="Tracé 3700" d="M523.511,291.23c-8.363-5.973,3.1-14.092,5.146-13.922s18.445,7.712,19.159,13.922,0,6.565-4.634,7.279S526.3,293.219,523.511,291.23Z" transform="translate(-520.494 -277.305)" fill="#d9d5c8"></path></g></g><g id="Groupe_4480" data-name="Groupe 4480" transform="translate(194.573 206.53)"><g id="Groupe_4479" data-name="Groupe 4479"><path id="Tracé_3701" data-name="Tracé 3701" d="M232.849,231.181c4.511-10.309-1.189-22.761-12.731-27.811s-24.557-.785-29.068,9.524a18.487,18.487,0,0,0-1.477,8.694c13.735,4.614,28.045,8.785,41.636,12.514A18.24,18.24,0,0,0,232.849,231.181Z" transform="translate(-189.529 -201.246)" fill="#21232b"></path></g></g></g></svg> 